<?xml version="1.0" encoding="utf-8"?>
<!-- Generator: Adobe Illustrator 19.2.1, SVG Export Plug-In . SVG Version: 6.00 Build 0)  -->
<svg version="1.1" id="Layer_1" xmlns="http://www.w3.org/2000/svg" xmlns:xlink="http://www.w3.org/1999/xlink" x="0px" y="0px"
	 viewBox="0 0 2048 2048" style="enable-background:new 0 0 2048 2048;" xml:space="preserve">
<style type="text/css">
	.st0 { fill-rule:evenodd;clip-rule:evenodd; }
	.svg-adm { fill: #9dab00; }
</style>
<g class="svg-adm" >
	<path class="st0 svg-adm" d="M1025,256.2L360.1,640.1v767.8l664.9,383.9l664.9-383.9V640.1L1025,256.2z M1574.3,1343.5l-549,317l-549-317
		V709.6l549-317l549,317V1343.5z"/>
	<path class="st0 svg-adm" d="M948.5,731c-27,7.1-52.5,17.8-75.9,31.5l-83.3-61.2l-86.5,86.5l61.2,83.3c-13.8,23.5-24.5,49-31.5,76
		l-102.1,15.7v122.3l102.2,15.7c7.1,26.9,17.7,52.5,31.4,75.9l-61.2,83.3l86.5,86.5l83.4-61.2c23.4,13.7,48.8,24.4,75.6,31.5
		l16,102.2h122.3l16-102.2c26.8-7,52.1-17.7,75.4-31.3l83.6,61l86.5-86.5l-61-83.6c13.6-23.3,24.3-48.6,31.3-75.4l102.2-16V962.8
		l-102.3-16c-7-26.7-17.6-52.1-31.2-75.4l61-83.6l-86.5-86.5l-83.6,61c-23.4-13.7-48.8-24.4-75.7-31.4l-15.7-102.1H964.1L948.5,731z
		 M1186.6,1024c0,89.1-72.2,161.3-161.3,161.3c-89.1,0-161.3-72.2-161.3-161.3c0-89.1,72.2-161.3,161.3-161.3
		C1114.4,862.7,1186.6,934.9,1186.6,1024z"/>
</g>
</svg>
