<?xml version="1.0" encoding="utf-8"?>
<!-- Generator: Adobe Illustrator 20.0.0, SVG Export Plug-In . SVG Version: 6.00 Build 0)  -->
<svg version="1.1" id="Layer_1" xmlns="http://www.w3.org/2000/svg" xmlns:xlink="http://www.w3.org/1999/xlink" x="0px" y="0px"
	 viewBox="0 0 1329.8 1535.6" style="enable-background:new 0 0 1329.8 1535.6;" xml:space="preserve">
<style type="text/css">
	.st0{fill:#1E96E2;}
</style>
<g>
	<path class="st0" d="M664.9,0L0,383.9v767.8l664.9,383.9l664.9-383.9V383.9L664.9,0z M1214.2,1087.3l-549,317l-549-317V453.4
		l549-317l549,317V1087.3z"/>
	<path class="st0" d="M877.1,622.2c-0.1,1.8-0.1,3.5-0.1,5.3l-90.4,43.2l87.1,40.5l40.9,183l6.6,39.9h131.3l17.8-28.9l-21.6-131.1
		L1025.9,672l-95.5-44.4c0-1.8-0.1-3.5-0.1-5.2c35.8-14.3,62.3-55.5,62.3-94.7c0-48.5-39.3-87.7-87.7-87.7s-87.7,39.3-87.7,87.7
		C817,566.7,842,607.9,877.1,622.2z"/>
	<path class="st0" d="M528.8,497.7c0,61.5,39.1,126,94.3,148.5c-0.1,2.8-0.2,5.5-0.2,8.4l-153.4,73.2L431,899.5l-24.2,190.8
		l24.4,45.3h467.1l27.9-45.3l-30.9-187.8l-38.8-178.2l-149.9-69.7c0-2.8-0.1-5.5-0.2-8.2c56.2-22.4,97.8-87.1,97.8-148.6
		c0-76-61.6-137.7-137.7-137.7C590.5,360,528.8,421.6,528.8,497.7z"/>
	<path class="st0" d="M451.9,711.2l87.1-40.5l-90.4-43.2c0-1.8-0.1-3.6-0.1-5.3c35.1-14.3,60.1-55.5,60.1-94.6
		c0-48.5-39.3-87.7-87.7-87.7s-87.7,39.3-87.7,87.7c0,39.2,26.5,80.5,62.3,94.7c-0.1,1.7-0.1,3.5-0.1,5.2l-95.5,44.4l-23,102.3
		l-21.6,131.1l17.8,28.9h131.3l6.6-39.9L451.9,711.2z"/>
</g>
</svg>
