<?xml version="1.0" encoding="utf-8"?>
<!-- Generator: Adobe Illustrator 20.0.0, SVG Export Plug-In . SVG Version: 6.00 Build 0)  -->
<svg version="1.1" id="Layer_1" xmlns="http://www.w3.org/2000/svg" xmlns:xlink="http://www.w3.org/1999/xlink" x="0px" y="0px"
	 viewBox="0 0 1329.8 1535.6" style="enable-background:new 0 0 1329.8 1535.6;" xml:space="preserve">
<style type="text/css">
	.st0{fill:#1EBCD5;}
</style>
<g>
	<path class="st0" d="M664.9,0L0,383.9v767.8l664.9,383.9l664.9-383.9V383.9L664.9,0z M1214.2,1087.3l-549,317l-549-317V453.4
		l549-317l549,317V1087.3z"/>
	<path class="st0" d="M351.7,1158.1h655.8v-143.8h147V635.8h-147v-67.2L805.3,377.2H351.7V1158.1z M1105.7,676.9v293.4H724.4V676.9
		H1105.7z M834.3,471.8l59.8,59.8h-59.8V471.8z M422.5,435h358.6v149.7H942v51.1H677v378.5h265v79.5H422.5V435z"/>
	<rect x="753.1" y="709.3" class="st0" width="101.4" height="101.4"/>
	<rect x="881.9" y="709.3" class="st0" width="194" height="38"/>
	<rect x="881.9" y="772.3" class="st0" width="194" height="38"/>
	<rect x="753.1" y="834.3" class="st0" width="322.8" height="105.5"/>
</g>
</svg>
