<?xml version="1.0" encoding="utf-8"?>
<!-- Generator: Adobe Illustrator 19.2.1, SVG Export Plug-In . SVG Version: 6.00 Build 0)  -->
<svg version="1.1" id="Layer_1" xmlns="http://www.w3.org/2000/svg" xmlns:xlink="http://www.w3.org/1999/xlink" x="0px" y="0px"
	 viewBox="0 0 2048 2048" style="enable-background:new 0 0 2048 2048;" xml:space="preserve">
<style type="text/css">
	.svg-dsg { fill: #d68f00; }
</style>
<g class="svg-dsg" >
	<path class="st0 svg-dsg" d="M1024,256.2L359.1,640.1v767.8l664.9,383.9l664.9-383.9V640.1L1024,256.2z M1573.3,1343.5l-549,317l-549-317
		V709.6l549-317l549,317V1343.5z"/>
	<polygon class="st0 svg-dsg" points="882.8,644.8 860.3,687.8 905.4,687.8 	"/>
	<polygon class="st0 svg-dsg" points="852.9,701.8 813.5,777 813.5,784.8 952.1,784.8 952.1,777 912.7,701.8 	"/>
	<rect class="st0 svg-dsg" x="813.5" y="798.8" width="138.6" height="613"/>
	<path class="st0 svg-dsg" d="M1232.1,1258.7H1196v-18h36.1v-66.9H1196v-18h36.1v-66.9H1196v-18h36.1V1004H1196v-18h36.1v-66.9H1196v-18
		h36.1v-66.9H1196v-18h36.1v-66.9H1196v-18h36.1v-86.5h-179.7v767h179.7V1258.7z M1169.1,1378.8c-14.8,0-26.9-12-26.9-26.9
		s12-26.9,26.9-26.9s26.9,12,26.9,26.9S1184,1378.8,1169.1,1378.8z"/>
</g>
</svg>
