<?xml version="1.0" encoding="utf-8"?>
<!-- Generator: Adobe Illustrator 20.0.0, SVG Export Plug-In . SVG Version: 6.00 Build 0)  -->
<svg version="1.1" id="Layer_1" xmlns="http://www.w3.org/2000/svg" xmlns:xlink="http://www.w3.org/1999/xlink" x="0px" y="0px"
	 viewBox="0 0 1329.8 1535.6" style="enable-background:new 0 0 1329.8 1535.6;" xml:space="preserve">
<style type="text/css">
	.st0{fill:#D49029;}
</style>
<g>
	<path class="st0" d="M664.9,0L0,383.9v767.8l664.9,383.9l664.9-383.9V383.9L664.9,0z M1214.2,1087.3l-549,317l-549-317V453.4
		l549-317l549,317V1087.3z"/>
	<path class="st0" d="M873,1002.5h-36.1v-18H873v-66.9h-36.1v-18H873v-66.9h-36.1v-18H873v-66.9h-36.1v-18H873v-66.9h-36.1v-18H873
		V578h-36.1v-18H873v-66.9h-36.1v-18H873v-86.5H693.3v767H873V1002.5z M810,1122.6c-14.8,0-26.9-12-26.9-26.9
		c0-14.9,12-26.9,26.9-26.9s26.9,12,26.9,26.9C836.9,1110.6,824.9,1122.6,810,1122.6z"/>
	<polygon class="st0" points="523.5,388.6 464.9,497.4 582.6,496.9 	"/>
	<rect x="454.4" y="1109" class="st0" width="138.6" height="46.6"/>
	<rect x="454.4" y="520.8" class="st0" width="138.6" height="566.9"/>
</g>
</svg>
