<?xml version="1.0" encoding="utf-8"?>
<!-- Generator: Adobe Illustrator 19.2.1, SVG Export Plug-In . SVG Version: 6.00 Build 0)  -->
<svg version="1.1" id="Layer_1" xmlns="http://www.w3.org/2000/svg" xmlns:xlink="http://www.w3.org/1999/xlink" x="0px" y="0px"
	 viewBox="0 0 11388.6 2048" style="enable-background:new 0 0 11388.6 2048;" xml:space="preserve">
<style type="text/css">
	.st0{fill:#00A4E4;}
</style>
<path class="st0" d="M1225.7,283.4c-63.9-17.3-131.4-26.6-200.9-26.6H257.6V1225H769V768.3h456.6L1225.7,283.4L1225.7,283.4z
	 M1280.5,300.4L1280.5,300.4v467.8h467.8C1671.3,550.3,1498.5,377.5,1280.5,300.4z M1765.4,823h-484.9v201.3l0,0
	c-0.2,141-114.6,255.4-255.7,255.4H823.9v511.5h200.9c423.7,0,767.2-343.5,767.2-767.2C1792,954.6,1782.8,887.1,1765.4,823z
	 M257.6,1791.2H769v-511.5H257.6V1791.2z"/>
<rect x="2380.6" y="595.5" class="st0" width="96" height="744.3"/>
<g>
	<path class="st0" d="M3478.5,952.1c0,37.4-6.9,69.6-20.8,96.8c-13.9,27.1-32.2,49.4-54.9,66.9c-22.7,17.5-48.3,30.4-76.9,38.6
		c-28.5,8.2-57.5,12.4-86.8,12.4h-159.2V739.9h154.4c30.2,0,59.9,3.5,89.2,10.6c29.3,7,55.5,18.7,78.4,35
		c22.9,16.3,41.4,38.1,55.5,65.4C3471.4,878.2,3478.5,911.9,3478.5,952.1z M3371.1,952.1c0-24.1-3.9-44.1-11.8-60
		c-7.8-15.9-18.3-28.5-31.4-38c-13.1-9.4-27.9-16.2-44.6-20.2c-16.7-4-33.9-6-51.6-6h-51.3v249.6h48.8c18.5,0,36.3-2.1,53.4-6.3
		c17.1-4.2,32.2-11.2,45.2-20.8c13.1-9.6,23.5-22.5,31.4-38.6C3367.2,995.8,3371.1,975.9,3371.1,952.1z"/>
	<path class="st0" d="M3991.6,951.5c0,33.8-5.8,64.6-17.5,92.6c-11.7,27.9-27.8,51.9-48.5,71.8c-20.7,19.9-45.3,35.3-73.9,46.1
		c-28.5,10.9-59.5,16.3-92.9,16.3c-33.4,0-64.2-5.4-92.6-16.3c-28.3-10.9-52.9-26.2-73.6-46.1c-20.7-19.9-36.9-43.8-48.5-71.8
		c-11.7-27.9-17.5-58.8-17.5-92.6c0-34.2,5.8-65,17.5-92.6c11.7-27.5,27.8-51,48.5-70.2c20.7-19.3,45.2-34.2,73.6-44.6
		c28.3-10.4,59.2-15.7,92.6-15.7c33.4,0,64.3,5.2,92.9,15.7c28.5,10.5,53.2,25.3,73.9,44.6c20.7,19.3,36.9,42.7,48.5,70.2
		C3985.8,886.5,3991.6,917.4,3991.6,951.5z M3881.3,951.5c0-18.5-3-35.8-9-51.9c-6-16.1-14.4-29.8-25-41.3
		c-10.7-11.5-23.5-20.5-38.6-27.1s-31.7-9.9-49.7-9.9c-18.1,0-34.6,3.3-49.4,9.9c-14.9,6.6-27.7,15.7-38.6,27.1s-19.2,25.2-25,41.3
		c-5.8,16.1-8.7,33.4-8.7,51.9c0,19.3,3,37.1,9,53.4c6,16.3,14.4,30.3,25,41.9c10.6,11.7,23.4,20.8,38.3,27.4
		c14.9,6.6,31.4,9.9,49.4,9.9c18.1,0,34.6-3.3,49.4-9.9c14.9-6.6,27.7-15.8,38.6-27.4c10.9-11.7,19.3-25.6,25.3-41.9
		C3878.2,988.6,3881.3,970.8,3881.3,951.5z"/>
	<path class="st0" d="M4365.5,1159.3c-27.7,12.7-59.7,19-95.9,19c-33,0-63.4-5.4-91.4-16.3c-27.9-10.9-52.2-26.2-72.7-46.1
		c-20.5-19.9-36.6-43.7-48.2-71.5c-11.7-27.7-17.5-58.3-17.5-91.7c0-34.2,5.9-65.1,17.8-92.9c11.9-27.7,28.2-51.3,49.1-70.9
		c20.9-19.5,45.4-34.5,73.6-44.9c28.1-10.4,58.5-15.7,91.1-15.7c30.1,0,59.8,5.3,88.9,16c29.1,10.7,52.8,26.2,70.9,46.7l-69.9,69.9
		c-9.6-13.3-22.3-23.1-38-29.5c-15.7-6.4-31.8-9.6-48.2-9.6c-18.1,0-34.7,3.3-49.7,9.9s-28,15.8-38.9,27.4
		c-10.9,11.7-19.3,25.4-25.3,41.3c-6,15.9-9,33.3-9,52.2c0,19.3,3,37,9,53.1c6,16.1,14.4,29.8,25,41.3
		c10.6,11.5,23.4,20.4,38.3,26.8c14.9,6.4,31.1,9.6,48.8,9.6c20.5,0,38.4-4,53.7-12.1c15.3-8,27.5-18.5,36.8-31.4l71.8,67.5
		C4416.5,1129.4,4393.2,1146.6,4365.5,1159.3z"/>
	<path class="st0" d="M4828.3,1076c-8.6,21.1-21,39.2-37.1,54.3c-16.1,15.1-35.5,26.8-58.2,35.3c-22.7,8.4-47.9,12.7-75.7,12.7
		c-28.1,0-53.5-4.2-76-12.7c-22.5-8.4-41.6-20.2-57.3-35.3c-15.7-15.1-27.7-33.2-36.2-54.3c-8.4-21.1-12.7-44.5-12.7-70.2V739.9
		h102.5v257.5c0,11.7,1.5,22.7,4.5,33.2c3,10.5,7.6,19.8,13.9,28c6.2,8.2,14.5,14.8,24.7,19.6c10.3,4.8,22.6,7.2,37.1,7.2
		c14.5,0,26.8-2.4,37.1-7.2c10.3-4.8,18.6-11.4,25-19.6c6.4-8.2,11.1-17.6,13.9-28c2.8-10.4,4.2-21.5,4.2-33.2V739.9h103.1v265.9
		C4841.2,1031.5,4836.9,1054.9,4828.3,1076z"/>
	<path class="st0" d="M5311.6,1166.8l2.4-302.1h-1.8l-111,302.1h-72.4l-107.9-302.1h-1.8l2.4,302.1h-97.1V739.9h146.7l97.2,273.8
		h2.4l93-273.8h149.1v426.9H5311.6z"/>
	<path class="st0" d="M5500.3,1166.8V739.9h287v86.8h-187.5v80.8h177.3v82.6h-177.3v88.6h198.4v88H5500.3z"/>
	<path class="st0" d="M6137.7,1166.8l-171.9-279.2h-1.8l2.4,279.2h-100.1V739.9h117.6l171.3,278.6h1.8l-2.4-278.6h100.1v426.9
		H6137.7z"/>
	<path class="st0" d="M6525.4,827.9v338.9h-103.1V827.9h-120.6v-88H6646v88H6525.4z"/>
	<path class="st0" d="M6946.3,1166.8l-33.2-83.8h-165.2l-31.4,83.8h-112.2l179.1-426.9h100.1l177.3,426.9H6946.3z M6831.7,853.8
		l-54.3,146.5h107.3L6831.7,853.8z"/>
	<path class="st0" d="M7242.9,827.9v338.9h-103.1V827.9h-120.6v-88h344.3v88H7242.9z"/>
	<path class="st0" d="M7410.6,1166.8V739.9h103.7v426.9H7410.6z"/>
	<path class="st0" d="M8047.3,951.5c0,33.8-5.8,64.6-17.5,92.6c-11.7,27.9-27.8,51.9-48.5,71.8c-20.7,19.9-45.3,35.3-73.9,46.1
		c-28.5,10.9-59.5,16.3-92.9,16.3c-33.4,0-64.2-5.4-92.6-16.3c-28.3-10.9-52.9-26.2-73.6-46.1c-20.7-19.9-36.9-43.8-48.5-71.8
		c-11.7-27.9-17.5-58.8-17.5-92.6c0-34.2,5.8-65,17.5-92.6c11.7-27.5,27.8-51,48.5-70.2c20.7-19.3,45.2-34.2,73.6-44.6
		c28.3-10.4,59.2-15.7,92.6-15.7c33.4,0,64.3,5.2,92.9,15.7c28.5,10.5,53.2,25.3,73.9,44.6c20.7,19.3,36.9,42.7,48.5,70.2
		C8041.5,886.5,8047.3,917.4,8047.3,951.5z M7937,951.5c0-18.5-3-35.8-9-51.9c-6-16.1-14.4-29.8-25-41.3
		c-10.7-11.5-23.5-20.5-38.6-27.1c-15.1-6.6-31.7-9.9-49.7-9.9c-18.1,0-34.6,3.3-49.4,9.9c-14.9,6.6-27.7,15.7-38.6,27.1
		c-10.9,11.5-19.2,25.2-25,41.3c-5.8,16.1-8.7,33.4-8.7,51.9c0,19.3,3,37.1,9,53.4c6,16.3,14.4,30.3,25,41.9
		c10.6,11.7,23.4,20.8,38.3,27.4c14.9,6.6,31.4,9.9,49.4,9.9c18.1,0,34.6-3.3,49.4-9.9c14.9-6.6,27.7-15.8,38.6-27.4
		c10.9-11.7,19.3-25.6,25.3-41.9S7937,970.8,7937,951.5z"/>
	<path class="st0" d="M8386.8,1166.8L8215,887.6h-1.8l2.4,279.2h-100.1V739.9h117.6l171.3,278.6h1.8l-2.4-278.6h100.1v426.9H8386.8z
		"/>
	<path class="st0" d="M9048.3,1159.3c-27.7,12.7-59.7,19-95.9,19c-33,0-63.4-5.4-91.4-16.3c-27.9-10.9-52.2-26.2-72.7-46.1
		c-20.5-19.9-36.6-43.7-48.2-71.5c-11.7-27.7-17.5-58.3-17.5-91.7c0-34.2,5.9-65.1,17.8-92.9c11.9-27.7,28.2-51.3,49.1-70.9
		c20.9-19.5,45.4-34.5,73.6-44.9c28.1-10.4,58.5-15.7,91.1-15.7c30.2,0,59.8,5.3,88.9,16c29.1,10.7,52.8,26.2,70.9,46.7l-69.9,69.9
		c-9.6-13.3-22.3-23.1-38-29.5c-15.7-6.4-31.8-9.6-48.2-9.6c-18.1,0-34.7,3.3-49.7,9.9c-15.1,6.6-28,15.8-38.9,27.4
		c-10.9,11.7-19.3,25.4-25.3,41.3c-6,15.9-9,33.3-9,52.2c0,19.3,3,37,9,53.1c6,16.1,14.4,29.8,25,41.3
		c10.6,11.5,23.4,20.4,38.3,26.8c14.9,6.4,31.1,9.6,48.8,9.6c20.5,0,38.4-4,53.7-12.1c15.3-8,27.5-18.5,36.8-31.4l71.8,67.5
		C9099.4,1129.4,9076.1,1146.6,9048.3,1159.3z"/>
	<path class="st0" d="M9162.3,1166.8V739.9h287v86.8h-187.5v80.8h177.3v82.6h-177.3v88.6h198.4v88H9162.3z"/>
	<path class="st0" d="M9799.6,1166.8l-171.9-279.2h-1.8l2.4,279.2h-100.1V739.9h117.6l171.3,278.6h1.8l-2.4-278.6h100.1v426.9
		H9799.6z"/>
	<path class="st0" d="M10187.4,827.9v338.9h-103.1V827.9h-120.6v-88h344.3v88H10187.4z"/>
	<path class="st0" d="M10355,1166.8V739.9h287v86.8h-187.5v80.8h177.3v82.6h-177.3v88.6h198.4v88H10355z"/>
	<path class="st0" d="M10949.6,1166.8l-92.7-169.4h-35.1v169.4H10721V739.9h162.8c20.5,0,40.5,2.1,60,6.3
		c19.5,4.2,37,11.4,52.5,21.4c15.5,10.1,27.8,23.3,37.1,39.8c9.2,16.5,13.9,37,13.9,61.5c0,28.9-7.8,53.3-23.5,73
		c-15.7,19.7-37.4,33.8-65.1,42.2l111.6,182.7H10949.6z M10945.3,870.7c0-10-2.1-18.2-6.4-24.4c-4.2-6.2-9.7-11.1-16.4-14.5
		c-6.7-3.4-14.1-5.7-22.4-6.9c-8.3-1.2-16.3-1.8-23.9-1.8h-55.1v99.5h49.1c8.5,0,17.2-0.7,26.1-2.1c8.9-1.4,17-3.9,24.2-7.5
		c7.3-3.6,13.2-8.8,17.9-15.7C10943,890.4,10945.3,881.6,10945.3,870.7z"/>
</g>
</svg>
