<?xml version="1.0" encoding="utf-8"?>
<!-- Generator: Adobe Illustrator 19.2.1, SVG Export Plug-In . SVG Version: 6.00 Build 0)  -->
<svg version="1.1" id="Layer_1" xmlns="http://www.w3.org/2000/svg" xmlns:xlink="http://www.w3.org/1999/xlink" x="0px" y="0px"
	 viewBox="0 0 2048 2048" style="enable-background:new 0 0 2048 2048;" xml:space="preserve">
<style type="text/css">
	.st0 { fill:#3F2B2F; }
</style>
<path class="st0 svg-logo" d="M1225.7,283.4c-63.9-17.3-131.4-26.6-200.9-26.6H257.6V1225H769V768.3h456.6V283.4z M1280.5,300.4L1280.5,300.4
	v467.8h467.8C1671.3,550.3,1498.5,377.5,1280.5,300.4z M1765.4,823h-484.9v201.3l0,0c-0.2,141-114.6,255.4-255.7,255.4H823.9v511.5
	h200.9c423.7,0,767.2-343.5,767.2-767.2C1792,954.6,1782.8,887.1,1765.4,823z M257.6,1791.2H769v-511.5H257.6V1791.2z"/>
</svg>
