<?xml version="1.0" encoding="utf-8"?>
<!-- Generator: Adobe Illustrator 19.1.0, SVG Export Plug-In . SVG Version: 6.00 Build 0)  -->
<!DOCTYPE svg PUBLIC "-//W3C//DTD SVG 1.1//EN" "http://www.w3.org/Graphics/SVG/1.1/DTD/svg11.dtd">
<svg version="1.1" id="Layer_1" xmlns="http://www.w3.org/2000/svg" xmlns:xlink="http://www.w3.org/1999/xlink" x="0px" y="0px"
	 viewBox="-167 356 276.5 82" enable-background="new -167 356 276.5 82" xml:space="preserve">
<g>
	<defs>
		<rect id="SVGID_1_" x="-167" y="356" width="279.3" height="82"/>
	</defs>
	<clipPath id="SVGID_2_">
		<use xlink:href="#SVGID_1_"  overflow="visible"/>
	</clipPath>
	<g clip-path="url(#SVGID_2_)">
		<polygon fill="none" points="66.6,390.6 64.6,396.1 68.7,396.1 		"/>
		<path fill="none" d="M-151.3,386.4c-3.3,0-6.1,2.1-7.4,5.1h14.7C-145.2,388.5-148,386.4-151.3,386.4z"/>
		<path fill="none" d="M-98,402.2L-98,402.2c1,0.3,2,0.4,3,0.4c6.8,0,12.3-5.5,12.3-12.3l0,0c0,6.8-5.5,12.2-12.2,12.2
			c-1,0-2-0.1-2.9-0.4c-0.2-0.9-0.4-1.9-0.4-2.9c0-2.1,0.5-4,1.4-5.8c-1,1.8-1.6,3.8-1.6,6C-98.4,400.3-98.2,401.3-98,402.2z"/>
		<path fill="none" d="M-94.6,408C-94.7,408-94.7,407.9-94.6,408C-94.7,407.9-94.7,408-94.6,408z"/>
		<path fill="none" d="M-56.2,387c-4.7,0-7.5,3.9-7.5,7.9c0,3.1,2.5,7.4,7.5,7.4c4.4,0,7.2-4,7.2-7.6C-49,390.8-51.8,387-56.2,387z"
			/>
		<polygon fill="#47292A" points="-121.3,398.3 -121.4,398.3 -127.8,380.2 -136.8,380.2 -125.5,409.3 -117.2,409.3 -105.9,380.2 
			-114.9,380.2 		"/>
		<path fill="#47292A" d="M-49,383.4L-49,383.4c-0.7-1.1-3-4.2-8.7-4.2c-7.9,0-14.6,6-14.6,16.1c0,8.3,5.8,14.9,14,14.9
			c5.5,0,7.8-2.5,8.8-3.9h0.1V419h8.7v-38.8H-49V383.4z M-56.2,402.3c-5,0-7.5-4.3-7.5-7.4c0-4,2.8-7.9,7.5-7.9
			c4.4,0,7.2,3.8,7.2,7.7C-49,398.3-51.8,402.3-56.2,402.3z"/>
		<path fill="#47292A" d="M-151.3,379.3c-8.6,0-15.5,6.9-15.5,15.5s6.9,15.5,15.5,15.5c6.5,0,12.1-4.1,14.4-9.8h-8.7v-0.1
			c-1.4,1.6-3.5,2.6-5.7,2.6c-3.5,0-6.5-2.4-7.5-5.6h22.8c0.2-0.9,0.2-1.7,0.2-2.6C-135.8,386.2-142.7,379.3-151.3,379.3z
			 M-158.7,391.5c1.3-3,4.1-5.1,7.4-5.1s6.1,2.1,7.3,5.1H-158.7z"/>
		<path fill="#FFFFFF" d="M-83.1,387.4C-84,387.1-85,387-86,387c-4.6,0-8.6,2.6-10.8,6.4c-0.9,1.7-1.4,3.7-1.4,5.8
			c0,1,0.2,2,0.4,2.9c0.9,0.3,1.9,0.4,2.9,0.4c6.7,0,12.2-5.5,12.2-12.2C-82.7,389.3-82.8,388.3-83.1,387.4c0.1,0,0.1-0.1,0.1-0.1
			h-0.1V387.4z"/>
		<path fill="#47292A" d="M-94.6,408C-94.7,408-94.7,407.9-94.6,408c-1.6-1.6-2.7-3.5-3.3-5.8H-98v0.1c-3.6-0.9-6.4-3.3-8.1-6.5
			c0.6,7.7,6.8,14,14.6,14.5c-1.1-0.6-2.1-1.3-3-2.2L-94.6,408z"/>
		<path fill="#47292A" d="M-74.9,393.9c-0.5-8-6.9-14.3-14.8-14.7c3.3,1.6,5.7,4.5,6.7,8.1v0.1C-79.4,388.3-76.5,390.7-74.9,393.9z"
			/>
		<path fill="#00A8E1" d="M-83,387.4c0.2,0.9,0.3,1.9,0.3,2.8l0,0c0,6.8-5.5,12.3-12.3,12.3c-1,0-2-0.1-2.9-0.4
			c0.6,2.2,1.7,4.2,3.2,5.7l0,0c0,0,0.1,0.1,0.2,0.1c0.9,0.9,1.9,1.6,3.1,2.2c0.3,0,0.6,0,0.9,0c8.6,0,15.6-7,15.6-15.6
			c0-0.3,0-0.6,0-0.8C-76.5,390.7-79.4,388.3-83,387.4z"/>
		<path fill="#EB0029" d="M-98,402.3v-0.1c-0.2-0.9-0.4-1.8-0.4-2.8c0.1-2.2,0.7-4.2,1.6-6c2.1-3.8,6.2-6.4,10.8-6.4
			c1,0,2,0.1,2.9,0.4v-0.1c-0.9-3.5-3.4-6.5-6.7-8.1c-0.3,0-0.5,0-0.8,0c-8.6,0-15.6,7-15.6,15.6c0,0.3,0,0.5,0,0.8
			c0,0.1,0.1,0.2,0.1,0.2C-104.4,399-101.6,401.4-98,402.3z"/>
		<path fill="#3F2B2F" d="M-13.8,437v-79.7c0-0.5-0.5-1-1-1s-1,0.4-1,1V437c0,0.5,0.5,1,1,1S-13.8,437.6-13.8,437z"/>
		<polygon fill="#47292A" points="14.6,389.6 14.6,386.3 3.8,386.3 3.8,402.4 15,402.4 15,399.1 7.5,399.1 7.5,395.8 14.2,395.8 
			14.2,392.7 7.5,392.7 7.5,389.6 		"/>
		<polygon fill="#47292A" points="24.3,386.3 19.9,386.3 19.9,402.4 23.7,402.4 23.6,391.9 23.7,391.9 30.2,402.4 34.6,402.4 
			34.6,386.3 30.8,386.3 30.9,396.8 30.8,396.8 		"/>
		<path fill="#47292A" d="M45,390.7c0.4-0.4,0.9-0.7,1.5-1s1.2-0.4,1.9-0.4c0.8,0,1.5,0.1,2.1,0.4s1.1,0.7,1.5,1.1l2.5-2.8
			c-0.7-0.7-1.6-1.2-2.7-1.6c-1.1-0.4-2.3-0.6-3.6-0.6c-1.2,0-2.3,0.2-3.4,0.6c-1.1,0.4-2,1-2.8,1.7c-0.8,0.8-1.5,1.7-1.9,2.7
			c-0.5,1-0.7,2.2-0.7,3.5s0.3,2.5,0.7,3.5c0.4,1.1,1,2,1.8,2.7s1.7,1.3,2.8,1.7c1.1,0.4,2.3,0.6,3.6,0.6s2.4-0.1,3.5-0.4
			c1-0.3,1.9-0.6,2.5-1v-8.5h-6.6v3.1h3.1v2.9c-0.3,0.1-0.7,0.2-1.1,0.3c-0.4,0.1-0.8,0.1-1.3,0.1c-0.8,0-1.5-0.1-2.1-0.4
			c-0.6-0.2-1.1-0.6-1.5-1s-0.7-1-0.9-1.6s-0.3-1.3-0.3-2s0.2-1.4,0.4-2C44.2,391.7,44.6,391.1,45,390.7z"/>
		<path fill="#47292A" d="M69.6,399.2l1.3,3.2h4.4l-6.7-16.1h-3.8L58,402.4h4.2l1.2-3.2L69.6,399.2L69.6,399.2z M66.6,390.6l2.1,5.5
			h-4.1L66.6,390.6z"/>
		<path fill="#47292A" d="M83.2,390.7c0.4-0.4,0.9-0.7,1.5-1s1.2-0.4,1.9-0.4c0.8,0,1.5,0.1,2.1,0.4s1.1,0.7,1.5,1.1l2.5-2.8
			c-0.7-0.7-1.6-1.2-2.7-1.6s-2.3-0.6-3.6-0.6c-1.2,0-2.3,0.2-3.4,0.6s-2,1-2.8,1.7c-0.8,0.8-1.5,1.7-1.9,2.7
			c-0.5,1-0.7,2.2-0.7,3.5s0.3,2.5,0.7,3.5c0.4,1.1,1,2,1.8,2.7s1.7,1.3,2.8,1.7c1.1,0.4,2.3,0.6,3.6,0.6s2.4-0.1,3.5-0.4
			s2-0.6,2.5-1v-8.5h-6.6v3.1H89v2.9c-0.3,0.1-0.7,0.2-1.1,0.3c-0.4,0.1-0.8,0.1-1.3,0.1c-0.8,0-1.5-0.1-2.1-0.4
			c-0.6-0.2-1.1-0.6-1.5-1s-0.7-1-0.9-1.6c-0.2-0.6-0.3-1.3-0.3-2s0.2-1.4,0.4-2C82.4,391.7,82.8,391.1,83.2,390.7z"/>
		<polygon fill="#47292A" points="102,395.8 108.7,395.8 108.7,392.7 102,392.7 102,389.6 109.1,389.6 109.1,386.3 98.3,386.3 
			98.3,402.4 109.5,402.4 109.5,399.1 102,399.1 		"/>
	</g>
	<rect x="-167" y="356" clip-path="url(#SVGID_2_)" fill="none" width="279.3" height="82"/>
	<rect x="-167" y="356" clip-path="url(#SVGID_2_)" fill="none" width="279.3" height="82"/>
	<rect x="-167" y="356" clip-path="url(#SVGID_2_)" fill="none" width="279.3" height="82"/>
	<rect x="-167" y="356" clip-path="url(#SVGID_2_)" fill="none" width="279.3" height="82"/>
	<rect x="-167" y="356" clip-path="url(#SVGID_2_)" fill="none" width="279.3" height="82"/>
	<rect x="-167" y="356" clip-path="url(#SVGID_2_)" fill="none" width="279.3" height="82"/>
	<rect x="-167" y="356" clip-path="url(#SVGID_2_)" fill="none" width="279.3" height="82"/>
	<rect x="-167" y="356" clip-path="url(#SVGID_2_)" fill="none" width="279.3" height="82"/>
	<rect x="-167" y="356" clip-path="url(#SVGID_2_)" fill="none" width="279.3" height="82"/>
	<rect x="-167" y="356" clip-path="url(#SVGID_2_)" fill="none" width="279.3" height="82"/>
	<rect x="-167" y="356" clip-path="url(#SVGID_2_)" fill="none" width="279.3" height="82"/>
	<rect x="-167" y="356" clip-path="url(#SVGID_2_)" fill="none" width="279.3" height="82"/>
	<rect x="-167" y="356" clip-path="url(#SVGID_2_)" fill="none" width="279.3" height="82"/>
	<rect x="-167" y="356" clip-path="url(#SVGID_2_)" fill="none" width="279.3" height="82"/>
</g>
</svg>
