<svg xmlns="http://www.w3.org/2000/svg" viewBox="0 0 459.93 297.85"><defs><style>.a{fill:#47292a;}.b{fill:#fff;}.c{fill:#00a4e4;}.d{fill:#ef3e42;}</style></defs><title>Asset 29</title><path class="a" d="M457.59,189.6H2.34C1,189.6,0,188.13,0,186.32S1,183,2.34,183H457.59c1.29,0,2.33,1.47,2.33,3.27S458.88,189.6,457.59,189.6Z"/><path class="a" d="M189,94.16H163l-35.4-91h28.21l20.14,56.74h.33L196.4,3.17h28.19Z"/><path class="a" d="M428.36,124.5H401.14V84.81h-.33c-3.11,4.27-10.17,12.3-27.54,12.3-25.74,0-43.95-20.66-43.95-46.72,0-31.48,20.83-50.34,45.75-50.34C392.77.05,400,9.89,402,13.17h.33v-10h26.07Zm-48.48-52c13.79,0,22.55-12.58,22.55-23.78,0-12.35-8.87-24.12-22.67-24.12-14.66,0-23.32,12.22-23.32,24.62C356.44,59.12,364.25,72.54,379.88,72.54Z"/><path class="a" d="M100.21,66.59a24.28,24.28,0,0,1-17.91,8A25,25,0,0,1,58.73,57h71.33a47.66,47.66,0,0,0,.78-8.28,48.62,48.62,0,1,0-3.46,17.92ZM82.3,22.75a24.88,24.88,0,0,1,22.93,15.83H59.36A24.9,24.9,0,0,1,82.3,22.75Z"/><path class="b" d="M258.58,73.08A38.13,38.13,0,0,1,249.39,72a37.92,37.92,0,0,1-1.1-9.09,38.34,38.34,0,0,1,38.33-38.34,38.74,38.74,0,0,1,9.19,1.11,38.35,38.35,0,0,1-37.24,47.44Z"/><path class="a" d="M274.92.06h0a38.38,38.38,0,0,1,20.89,25.58,38.4,38.4,0,0,1,25.27,20.41A48.65,48.65,0,0,0,274.92.06ZM249.39,72a38.41,38.41,0,0,1-25.51-20.87,48.67,48.67,0,0,0,45.78,46.16A38.37,38.37,0,0,1,249.39,72ZM223.89,51.09Zm97.2-5Z"/><path class="c" d="M321.15,48.67c0-.88,0-1.74-.06-2.61a38.4,38.4,0,0,0-25.27-20.41A38.31,38.31,0,0,1,249.39,72a38.37,38.37,0,0,0,20.27,25.29c.94.05,1.88.09,2.83.09A48.67,48.67,0,0,0,321.15,48.67Z"/><path class="d" d="M286.62,24.53a38.74,38.74,0,0,1,9.19,1.11A38.38,38.38,0,0,0,274.92.06c-.8,0-1.59-.06-2.43-.06a48.66,48.66,0,0,0-48.66,48.67c0,.81,0,1.62.05,2.42A38.41,38.41,0,0,0,249.39,72a37.92,37.92,0,0,1-1.1-9.09A38.34,38.34,0,0,1,286.62,24.53Z"/><path class="a" d="M76.79,295.61a27,27,0,0,1-11.33,2.24,29.53,29.53,0,0,1-10.79-1.92A24.91,24.91,0,0,1,40.39,282a29.55,29.55,0,0,1,0-21.8,24.39,24.39,0,0,1,5.81-8.37,25.75,25.75,0,0,1,8.69-5.31,31.16,31.16,0,0,1,21.27,0,20.12,20.12,0,0,1,8.37,5.52l-8.26,8.26a10.22,10.22,0,0,0-4.49-3.49,14.9,14.9,0,0,0-5.7-1.14,14.43,14.43,0,0,0-5.88,1.18,13.79,13.79,0,0,0-4.6,3.24,14.78,14.78,0,0,0-3,4.88,17.22,17.22,0,0,0-1.07,6.16,17.72,17.72,0,0,0,1.07,6.27,14.59,14.59,0,0,0,3,4.88,13.28,13.28,0,0,0,4.52,3.17,14.36,14.36,0,0,0,5.77,1.14,13.42,13.42,0,0,0,6.34-1.42,12.3,12.3,0,0,0,4.35-3.71l8.48,8A24,24,0,0,1,76.79,295.61Z"/><path class="a" d="M149.1,271.06A28.14,28.14,0,0,1,147,282a24.9,24.9,0,0,1-5.73,8.48,25.54,25.54,0,0,1-8.73,5.45,30.61,30.61,0,0,1-11,1.92,30.3,30.3,0,0,1-10.94-1.92,25.59,25.59,0,0,1-8.69-5.45A24.87,24.87,0,0,1,96.24,282a28.1,28.1,0,0,1-2.07-10.94,27.77,27.77,0,0,1,2.07-10.94,23.92,23.92,0,0,1,5.73-8.3,25.57,25.57,0,0,1,8.69-5.27,31.37,31.37,0,0,1,10.94-1.85,31.69,31.69,0,0,1,11,1.85,25.52,25.52,0,0,1,8.73,5.27,24,24,0,0,1,5.73,8.3A27.8,27.8,0,0,1,149.1,271.06Zm-13,0a17.35,17.35,0,0,0-1.07-6.13,14.62,14.62,0,0,0-3-4.88,13.66,13.66,0,0,0-4.56-3.21,14.42,14.42,0,0,0-5.88-1.18,14,14,0,0,0-10.4,4.38,13.84,13.84,0,0,0-3,4.88,18.91,18.91,0,0,0,0,12.43,14.91,14.91,0,0,0,3,5,13.47,13.47,0,0,0,4.52,3.24,15.1,15.1,0,0,0,11.68,0,13.88,13.88,0,0,0,4.56-3.24,14.64,14.64,0,0,0,3-5A18.05,18.05,0,0,0,136.07,271.06Z"/><path class="a" d="M196.33,296.5l-20.3-33h-.21l.29,33H164.28V246.06h13.89L198.4,279h.21l-.29-32.91h11.83V296.5Z"/><path class="a" d="M249.27,256.46v40H237.09v-40H222.84v-10.4h40.68v10.4Z"/><path class="a" d="M276.2,296.5V246.06h33.91v10.26H288v9.55H308.9v9.76H288V286.1h23.44v10.4Z"/><path class="a" d="M358.63,296.5l-20.3-33h-.21l.29,33H326.57V246.06h13.89L360.69,279h.21l-.29-32.91h11.83V296.5Z"/><path class="a" d="M411.56,256.46v40H399.38v-40H385.13v-10.4h40.68v10.4Z"/></svg>