<?xml version="1.0" encoding="utf-8"?>
<!-- Generator: Adobe Illustrator 15.0.2, SVG Export Plug-In . SVG Version: 6.00 Build 0)  -->
<!DOCTYPE svg PUBLIC "-//W3C//DTD SVG 1.1//EN" "http://www.w3.org/Graphics/SVG/1.1/DTD/svg11.dtd">
<svg version="1.1" id="Layer_1" xmlns="http://www.w3.org/2000/svg" xmlns:xlink="http://www.w3.org/1999/xlink" x="0px" y="0px"
	 width="293.305px" height="82px" viewBox="0 0 293.305 82" enable-background="new 0 0 293.305 82" xml:space="preserve">
<g>
	<defs>
		<rect id="SVGID_1_" width="293.305" height="82"/>
	</defs>
	<clipPath id="SVGID_2_">
		<use xlink:href="#SVGID_1_"  overflow="visible"/>
	</clipPath>
	<path clip-path="url(#SVGID_2_)" fill="#472A2B" d="M170.916,38.317v-0.045c0-4.472,3.37-8.135,8.202-8.135
		c2.966,0,4.742,0.988,6.202,2.428l-2.202,2.538c-1.212-1.101-2.45-1.777-4.023-1.777c-2.65,0-4.562,2.206-4.562,4.899v0.046
		c0,2.697,1.866,4.944,4.562,4.944c1.8,0,2.898-0.718,4.135-1.843l2.202,2.225c-1.616,1.73-3.414,2.808-6.448,2.808
		C174.352,46.407,170.916,42.833,170.916,38.317"/>
	<path clip-path="url(#SVGID_2_)" fill="#472A2B" d="M188.62,38.317v-0.045c0-4.472,3.528-8.135,8.382-8.135
		c4.854,0,8.338,3.618,8.338,8.089v0.046c0,4.472-3.528,8.135-8.383,8.135C192.103,46.407,188.62,42.79,188.62,38.317
		 M201.722,38.317v-0.045c0-2.697-1.979-4.946-4.766-4.946c-2.786,0-4.718,2.206-4.718,4.899v0.046c0,2.697,1.977,4.944,4.763,4.944
		C199.789,43.216,201.722,41.014,201.722,38.317"/>
	<polygon clip-path="url(#SVGID_2_)" fill="#472A2B" points="209.989,30.406 213.178,30.406 220.55,40.092 220.55,30.406 
		223.966,30.406 223.966,46.138 221.021,46.138 213.403,36.139 213.403,46.138 209.989,46.138 	"/>
	<polygon clip-path="url(#SVGID_2_)" fill="#472A2B" points="232.973,33.598 228.185,33.598 228.185,30.407 241.222,30.407 
		241.222,33.598 236.436,33.598 236.436,46.138 232.973,46.138 	"/>
	<polygon clip-path="url(#SVGID_2_)" fill="#472A2B" points="245.443,30.406 257.309,30.406 257.309,33.485 248.881,33.485 
		248.881,36.676 256.297,36.676 256.297,39.755 248.881,39.755 248.881,43.059 257.422,43.059 257.422,46.138 245.443,46.138 	"/>
	<polygon clip-path="url(#SVGID_2_)" fill="#472A2B" points="262.071,30.406 265.263,30.406 272.634,40.092 272.634,30.406 
		276.049,30.406 276.049,46.138 273.106,46.138 265.488,36.139 265.488,46.138 262.071,46.138 	"/>
	<polygon clip-path="url(#SVGID_2_)" fill="#472A2B" points="285.057,33.598 280.268,33.598 280.268,30.407 293.305,30.407 
		293.305,33.598 288.519,33.598 288.519,46.138 285.057,46.138 	"/>
	<path clip-path="url(#SVGID_2_)" fill="#472A2B" d="M151.81,80.947V1.048c0-0.58,0.47-1.048,1.049-1.048s1.049,0.469,1.049,1.048
		v79.899c0,0.58-0.47,1.053-1.049,1.053S151.81,81.527,151.81,80.947"/>
	<polygon clip-path="url(#SVGID_2_)" fill="#472A2B" points="49.734,52.978 41.382,52.978 30.044,23.831 39.079,23.831 
		45.53,42.006 45.637,42.006 52.089,23.831 61.119,23.831 	"/>
	<path clip-path="url(#SVGID_2_)" fill="#472A2B" d="M126.39,62.699h-8.719V49.984h-0.107c-0.997,1.368-3.256,3.939-8.821,3.939
		c-8.245,0-14.078-6.617-14.078-14.965c0-10.083,6.673-16.125,14.654-16.125c5.671,0,7.981,3.151,8.611,4.201h0.107v-3.202h8.353
		V62.699z M110.861,46.052c4.417,0,7.224-4.028,7.224-7.618c0-3.957-2.842-7.724-7.261-7.724c-4.697,0-7.471,3.915-7.471,7.885
		C103.354,41.752,105.854,46.052,110.861,46.052"/>
	<path clip-path="url(#SVGID_2_)" fill="#472A2B" d="M21.278,44.146c-1.449,1.572-3.481,2.565-5.737,2.565
		c-3.511,0-6.486-2.369-7.55-5.65h22.848c0.151-0.868,0.246-1.749,0.246-2.655c0-8.584-6.958-15.544-15.544-15.544
		c-8.586,0-15.542,6.96-15.542,15.544c0,8.586,6.957,15.546,15.542,15.546c6.551,0,12.15-4.064,14.438-9.806H21.278z M15.542,30.103
		c3.301,0,6.14,2.09,7.345,5.072H8.193C9.404,32.193,12.236,30.103,15.542,30.103"/>
	<path clip-path="url(#SVGID_2_)" fill="#FFFFFF" d="M72.006,46.227c-1.015,0-2.003-0.126-2.943-0.36
		c-0.229-0.933-0.352-1.906-0.352-2.911c0-6.783,5.5-12.28,12.277-12.28c1.014,0,2.006,0.126,2.945,0.356
		c0.229,0.933,0.35,1.91,0.35,2.914C84.283,40.723,78.787,46.227,72.006,46.227"/>
	<path clip-path="url(#SVGID_2_)" fill="#472A2B" d="M77.24,22.836L77.24,22.836c3.313,1.564,5.812,4.564,6.694,8.194
		c3.564,0.877,6.521,3.313,8.094,6.539C91.61,29.609,85.216,23.228,77.24,22.836 M69.064,45.867
		c-3.622-0.888-6.611-3.384-8.169-6.686c0.389,7.951,6.734,14.334,14.662,14.787C72.345,52.381,69.928,49.429,69.064,45.867"/>
	<path clip-path="url(#SVGID_2_)" fill="#00A4E4" d="M92.049,38.406c0-0.281-0.007-0.558-0.021-0.837
		c-1.573-3.225-4.528-5.66-8.094-6.537c0.229,0.933,0.35,1.91,0.35,2.914c0,6.777-5.497,12.281-12.277,12.281
		c-1.015,0-2.003-0.126-2.943-0.36c0.864,3.563,3.281,6.514,6.494,8.102c0.302,0.017,0.604,0.027,0.906,0.027
		C85.071,53.992,92.049,47.015,92.049,38.406"/>
	<path clip-path="url(#SVGID_2_)" fill="#EF3E42" d="M80.988,30.675c1.015,0,2.007,0.126,2.945,0.357
		c-0.881-3.631-3.38-6.631-6.693-8.194c-0.256-0.015-0.51-0.021-0.777-0.021c-8.605,0-15.586,6.978-15.586,15.589
		c0,0.263,0.007,0.519,0.018,0.777c1.559,3.302,4.55,5.797,8.17,6.685c-0.229-0.933-0.353-1.906-0.353-2.911
		C68.711,36.174,74.211,30.675,80.988,30.675"/>
</g>
</svg>
