<svg xmlns="http://www.w3.org/2000/svg" viewBox="0 0 459.93 297.85"><defs><style>.a{fill:#47292a;}.b{fill:#fff;}.c{fill:#00a4e4;}.d{fill:#ef3e42;}</style></defs><title>Asset 31</title><path class="a" d="M457.59,189.6H2.34C1,189.6,0,188.13,0,186.32S1,183,2.34,183H457.59c1.29,0,2.33,1.47,2.33,3.27S458.88,189.6,457.59,189.6Z"/><path class="a" d="M188,94.16H161.91l-35.4-91h28.21l20.14,56.74h.33L195.33,3.17h28.19Z"/><path class="a" d="M427.29,124.5H400.07V84.81h-.33c-3.11,4.27-10.17,12.3-27.54,12.3-25.74,0-43.95-20.66-43.95-46.72C328.25,18.91,349.08.05,374,.05c17.7,0,24.92,9.84,26.89,13.11h.33v-10h26.07Zm-48.48-52c13.79,0,22.55-12.58,22.55-23.78,0-12.35-8.87-24.12-22.67-24.12-14.66,0-23.32,12.22-23.32,24.62C355.37,59.12,363.19,72.54,378.81,72.54Z"/><path class="a" d="M99.14,66.59a24.28,24.28,0,0,1-17.91,8A25,25,0,0,1,57.66,57H129a47.66,47.66,0,0,0,.78-8.28,48.62,48.62,0,1,0-3.46,17.92ZM81.23,22.75a24.88,24.88,0,0,1,22.93,15.83H58.29A24.9,24.9,0,0,1,81.23,22.75Z"/><path class="b" d="M257.51,73.08A38.13,38.13,0,0,1,248.33,72a37.92,37.92,0,0,1-1.1-9.09,38.34,38.34,0,0,1,38.33-38.34,38.74,38.74,0,0,1,9.19,1.11,38.35,38.35,0,0,1-37.24,47.44Z"/><path class="a" d="M273.85.06h0a38.38,38.38,0,0,1,20.89,25.58A38.4,38.4,0,0,1,320,46.06,48.65,48.65,0,0,0,273.85.06ZM248.33,72a38.41,38.41,0,0,1-25.51-20.87A48.67,48.67,0,0,0,268.6,97.25,38.37,38.37,0,0,1,248.33,72ZM222.82,51.09Zm97.2-5Z"/><path class="c" d="M320.08,48.67c0-.88,0-1.74-.06-2.61a38.4,38.4,0,0,0-25.27-20.41A38.31,38.31,0,0,1,248.33,72,38.37,38.37,0,0,0,268.6,97.25c.94.05,1.88.09,2.83.09A48.67,48.67,0,0,0,320.08,48.67Z"/><path class="d" d="M285.55,24.53a38.74,38.74,0,0,1,9.19,1.11A38.38,38.38,0,0,0,273.85.06c-.8,0-1.59-.06-2.43-.06a48.66,48.66,0,0,0-48.66,48.67c0,.81,0,1.62.05,2.42A38.41,38.41,0,0,0,248.33,72a37.92,37.92,0,0,1-1.1-9.09A38.34,38.34,0,0,1,285.55,24.53Z"/><path class="a" d="M153.41,281.82a13.59,13.59,0,0,1-1.64,6.95,13,13,0,0,1-4.35,4.52,19,19,0,0,1-6.16,2.46,33.39,33.39,0,0,1-7.09.75H114.09V246.06h20.09a30.86,30.86,0,0,1,6,.61,17.73,17.73,0,0,1,5.56,2.07A11.11,11.11,0,0,1,151.35,259a10.5,10.5,0,0,1-2.28,6.95,12.72,12.72,0,0,1-6,4v.14a13.84,13.84,0,0,1,4,1.32,11.66,11.66,0,0,1,3.28,2.46,11.52,11.52,0,0,1,2.21,3.49A11.74,11.74,0,0,1,153.41,281.82Zm-13.82-21.16a4,4,0,0,0-2-3.74,11.47,11.47,0,0,0-5.81-1.18h-6v10.4h6.55a8.82,8.82,0,0,0,5.31-1.39A4.77,4.77,0,0,0,139.59,260.66Zm1.64,20a4.45,4.45,0,0,0-2.35-4.35,13.77,13.77,0,0,0-6.27-1.21h-6.77v11.54h6.84a18.35,18.35,0,0,0,3-.25,9.3,9.3,0,0,0,2.78-.89,5,5,0,0,0,2.81-4.84Z"/><path class="a" d="M202.78,296.5l-3.92-9.9H179.34l-3.7,9.9H162.39l21.16-50.44h11.83l20.95,50.44Zm-13.54-37-6.41,17.31h12.68Z"/><path class="a" d="M254.29,259.16a11,11,0,0,0-4.1-3.17,11.57,11.57,0,0,0-4.88-1.17,14.49,14.49,0,0,0-2.46.21,6.34,6.34,0,0,0-2.24.82,5.5,5.5,0,0,0-1.67,1.57,4.16,4.16,0,0,0-.68,2.46,4,4,0,0,0,.54,2.14,4.74,4.74,0,0,0,1.57,1.5,13.94,13.94,0,0,0,2.46,1.18q1.43.53,3.21,1.1,2.56.86,5.34,1.89a20,20,0,0,1,5.06,2.74,14.43,14.43,0,0,1,3.78,4.24,12.22,12.22,0,0,1,1.5,6.3,16.48,16.48,0,0,1-1.6,7.52,15,15,0,0,1-4.31,5.24,18.47,18.47,0,0,1-6.2,3.06,26.1,26.1,0,0,1-7.2,1,29.72,29.72,0,0,1-10.47-1.89,22.18,22.18,0,0,1-8.41-5.38l8-8.12a14.71,14.71,0,0,0,4.88,3.81,13.23,13.23,0,0,0,6,1.53,12.08,12.08,0,0,0,2.63-.29,6.57,6.57,0,0,0,2.24-.93,4.62,4.62,0,0,0,1.53-1.71,5.37,5.37,0,0,0,.57-2.57,4.08,4.08,0,0,0-.71-2.42,7,7,0,0,0-2-1.82,16.42,16.42,0,0,0-3.28-1.5q-2-.68-4.45-1.46a42.36,42.36,0,0,1-4.74-1.85,15.85,15.85,0,0,1-4.13-2.74,12.69,12.69,0,0,1-2.92-4.06,13.77,13.77,0,0,1-1.1-5.81,14.29,14.29,0,0,1,1.71-7.2,14.88,14.88,0,0,1,4.49-4.92,19.33,19.33,0,0,1,6.27-2.81,28.47,28.47,0,0,1,7.05-.89,26.21,26.21,0,0,1,8.73,1.57,22.52,22.52,0,0,1,7.8,4.63Z"/><path class="a" d="M276.88,296.5V246.06h12.25V296.5Z"/><path class="a" d="M342.77,295.6a27,27,0,0,1-11.33,2.24,29.54,29.54,0,0,1-10.79-1.92A24.91,24.91,0,0,1,306.37,282a29.55,29.55,0,0,1,0-21.8,24.39,24.39,0,0,1,5.81-8.37,25.73,25.73,0,0,1,8.69-5.31,31.16,31.16,0,0,1,21.27,0,20.12,20.12,0,0,1,8.37,5.52l-8.26,8.26a10.24,10.24,0,0,0-4.49-3.49,14.92,14.92,0,0,0-5.7-1.14,14.43,14.43,0,0,0-5.88,1.18,13.77,13.77,0,0,0-4.59,3.24,14.74,14.74,0,0,0-3,4.88,17.22,17.22,0,0,0-1.07,6.16,17.72,17.72,0,0,0,1.07,6.27,14.59,14.59,0,0,0,3,4.88,13.29,13.29,0,0,0,4.53,3.17,14.36,14.36,0,0,0,5.77,1.14,13.42,13.42,0,0,0,6.34-1.42,12.31,12.31,0,0,0,4.35-3.71l8.48,8A24,24,0,0,1,342.77,295.6Z"/></svg>