<svg xmlns="http://www.w3.org/2000/svg" viewBox="0 0 459.93 297.78"><defs><style>.a{fill:#47292a;}.b{fill:#fff;}.c{fill:#00a4e4;}.d{fill:#ef3e42;}</style></defs><title>Asset 30</title><path class="a" d="M457.59,189.6H2.34C1,189.6,0,188.13,0,186.32S1,183,2.34,183H457.59c1.29,0,2.33,1.47,2.33,3.27S458.88,189.6,457.59,189.6Z"/><path class="a" d="M188,94.16H161.91l-35.4-91h28.21l20.14,56.74h.33L195.33,3.17h28.19Z"/><path class="a" d="M427.29,124.5H400.07V84.81h-.33c-3.11,4.27-10.17,12.3-27.54,12.3-25.74,0-43.95-20.66-43.95-46.72C328.25,18.91,349.08.05,374,.05c17.7,0,24.92,9.84,26.89,13.11h.33v-10h26.07Zm-48.48-52c13.79,0,22.55-12.58,22.55-23.78,0-12.35-8.87-24.12-22.67-24.12-14.66,0-23.32,12.22-23.32,24.62C355.37,59.12,363.19,72.54,378.81,72.54Z"/><path class="a" d="M99.14,66.59a24.28,24.28,0,0,1-17.91,8A25,25,0,0,1,57.66,57H129a47.66,47.66,0,0,0,.78-8.28,48.62,48.62,0,1,0-3.46,17.92ZM81.23,22.75a24.88,24.88,0,0,1,22.93,15.83H58.29A24.9,24.9,0,0,1,81.23,22.75Z"/><path class="b" d="M257.51,73.08A38.13,38.13,0,0,1,248.33,72a37.92,37.92,0,0,1-1.1-9.09,38.34,38.34,0,0,1,38.33-38.34,38.74,38.74,0,0,1,9.19,1.11,38.35,38.35,0,0,1-37.24,47.44Z"/><path class="a" d="M273.85.06h0a38.38,38.38,0,0,1,20.89,25.58A38.4,38.4,0,0,1,320,46.06,48.65,48.65,0,0,0,273.85.06ZM248.33,72a38.41,38.41,0,0,1-25.51-20.87A48.67,48.67,0,0,0,268.6,97.25,38.37,38.37,0,0,1,248.33,72ZM222.82,51.09Zm97.2-5Z"/><path class="c" d="M320.08,48.67c0-.88,0-1.74-.06-2.61a38.4,38.4,0,0,0-25.27-20.41A38.31,38.31,0,0,1,248.33,72,38.37,38.37,0,0,0,268.6,97.25c.94.05,1.88.09,2.83.09A48.67,48.67,0,0,0,320.08,48.67Z"/><path class="d" d="M285.55,24.53a38.74,38.74,0,0,1,9.19,1.11A38.38,38.38,0,0,0,273.85.06c-.8,0-1.59-.06-2.43-.06a48.66,48.66,0,0,0-48.66,48.67c0,.81,0,1.62.05,2.42A38.41,38.41,0,0,0,248.33,72a37.92,37.92,0,0,1-1.1-9.09A38.34,38.34,0,0,1,285.55,24.53Z"/><path class="a" d="M65.86,296.49V246.06H99.77v10.26H77.61v9.55H98.56v9.76H77.61v10.47H101v10.4Z"/><path class="a" d="M148.28,296.49l-20.3-33h-.21l.29,33H116.22V246.06h13.89L150.35,279h.21l-.29-32.91H162.1v50.44Z"/><path class="a" d="M215.79,296.57A45.44,45.44,0,0,1,205,297.78a31.29,31.29,0,0,1-11.15-1.92,25.72,25.72,0,0,1-8.76-5.41,24.67,24.67,0,0,1-5.73-8.37,29.64,29.64,0,0,1,0-21.84,24.39,24.39,0,0,1,5.81-8.37,25.75,25.75,0,0,1,8.69-5.31,30.66,30.66,0,0,1,10.76-1.85,33.05,33.05,0,0,1,11.11,1.82,23,23,0,0,1,8.34,4.88l-7.69,8.76a13.33,13.33,0,0,0-4.7-3.38,16,16,0,0,0-6.62-1.32,14.68,14.68,0,0,0-5.91,1.18,14.22,14.22,0,0,0-4.7,3.28,14.88,14.88,0,0,0-3.1,5,17.49,17.49,0,0,0-1.1,6.3,19.71,19.71,0,0,0,1,6.41,13.77,13.77,0,0,0,3,5,13.47,13.47,0,0,0,4.85,3.28,17.35,17.35,0,0,0,6.59,1.17,24.69,24.69,0,0,0,4.06-.32,15.13,15.13,0,0,0,3.56-1v-9.19h-9.62v-9.83h20.8v26.72A38.75,38.75,0,0,1,215.79,296.57Z"/><path class="a" d="M275.74,296.49l-3.92-9.9H252.3l-3.7,9.9H235.34l21.16-50.44h11.83l20.95,50.44Zm-13.54-37-6.41,17.31h12.68Z"/><path class="a" d="M335.47,296.57a45.44,45.44,0,0,1-10.79,1.21,31.29,31.29,0,0,1-11.15-1.92,25.72,25.72,0,0,1-8.76-5.41,24.67,24.67,0,0,1-5.73-8.37,29.64,29.64,0,0,1,0-21.84,24.39,24.39,0,0,1,5.81-8.37,25.75,25.75,0,0,1,8.69-5.31,30.66,30.66,0,0,1,10.76-1.85,33.05,33.05,0,0,1,11.11,1.82,23,23,0,0,1,8.34,4.88l-7.69,8.76a13.33,13.33,0,0,0-4.7-3.38,16,16,0,0,0-6.62-1.32,14.68,14.68,0,0,0-5.91,1.18,14.22,14.22,0,0,0-4.7,3.28,14.88,14.88,0,0,0-3.1,5,17.49,17.49,0,0,0-1.1,6.3,19.71,19.71,0,0,0,1,6.41,13.77,13.77,0,0,0,3,5,13.47,13.47,0,0,0,4.85,3.28,17.35,17.35,0,0,0,6.59,1.17,24.69,24.69,0,0,0,4.06-.32,15.13,15.13,0,0,0,3.56-1v-9.19h-9.62v-9.83h20.8v26.72A38.75,38.75,0,0,1,335.47,296.57Z"/><path class="a" d="M361.23,296.49V246.06h33.91v10.26H373v9.55h20.95v9.76H373v10.47h23.44v10.4Z"/></svg>